<?xml version="1.0" encoding="utf-8"?>
<!-- Generator: Adobe Illustrator 24.3.0, SVG Export Plug-In . SVG Version: 6.00 Build 0)  -->
<svg version="1.1" id="Layer_1" xmlns="http://www.w3.org/2000/svg" xmlns:xlink="http://www.w3.org/1999/xlink" x="0px" y="0px"
	 viewBox="0 0 139 18" style="enable-background:new 0 0 139 18;" xml:space="preserve">
<style type="text/css">
	.st0{fill-rule:evenodd;clip-rule:evenodd;fill:#333333;}
	.st1{fill:#333333;}
</style>
<path class="st0" d="M26.4,2.9H27c0.2,0,0.3,0,0.4,0.1c0.1,0.1,0.2,0.2,0.2,0.3c0,0.1,0.1,0.2,0.1,0.4c0,0.2,0,0.3,0,0.4v2.8
	c0,0.3,0,0.6,0.2,0.8s0.3,0.4,0.5,0.5c0.2,0.1,0.4,0.2,0.6,0.3c0.2,0.1,0.4,0.1,0.6,0.1v0c-0.2,0-0.3,0-0.5,0.1l-0.1,0
	c-0.2,0-0.4,0.1-0.6,0.2C28.2,9,28,9.2,27.9,9.4s-0.2,0.6-0.2,1V13c0,0.1,0,0.2,0,0.4c0,0.2,0,0.3-0.1,0.4c0,0.1-0.1,0.2-0.3,0.3
	c-0.1,0.1-0.3,0.1-0.5,0.1h-0.4v3h1.7c0.2,0,0.5-0.1,0.7-0.2s0.5-0.2,0.7-0.4c0.2-0.2,0.4-0.5,0.5-0.8c0.1-0.3,0.2-0.7,0.2-1.1v-3.4
	c0-0.3,0-0.5,0.1-0.6c0.1-0.2,0.2-0.3,0.4-0.4c0.1-0.1,0.3-0.2,0.4-0.2c0.1,0,0.3,0,0.3,0V7.2c-0.1,0-0.2,0-0.3,0
	c-0.1,0-0.3-0.1-0.4-0.2c-0.1-0.1-0.2-0.2-0.4-0.3c-0.1-0.2-0.1-0.3-0.1-0.6V2.5c0-0.4-0.1-0.8-0.2-1.1C30,1,29.8,0.8,29.6,0.6
	c-0.2-0.2-0.4-0.3-0.7-0.4C28.7,0.1,28.4,0,28.2,0h-1.7V2.9z M5.2,2.9H4.7c-0.2,0-0.3,0-0.4,0.1C4.1,3.1,4.1,3.2,4,3.3
	c0,0.1-0.1,0.2-0.1,0.4v0c0,0.2,0,0.3,0,0.4v2.8c0,0.3,0,0.6-0.2,0.8C3.6,7.9,3.5,8,3.3,8.2C3.1,8.3,2.9,8.4,2.7,8.4
	C2.5,8.5,2.3,8.5,2.1,8.5v0c0.2,0,0.3,0,0.5,0.1h0l0.1,0c0.2,0,0.4,0.1,0.6,0.2C3.4,9,3.6,9.2,3.7,9.4c0.1,0.2,0.2,0.6,0.2,1V13
	c0,0.1,0,0.2,0,0.4c0,0.2,0,0.3,0.1,0.4c0,0.1,0.1,0.2,0.3,0.3c0.1,0.1,0.3,0.1,0.5,0.1h0.4v3H3.5c-0.2,0-0.5-0.1-0.7-0.2
	C2.5,17,2.3,16.8,2,16.6c-0.2-0.2-0.4-0.5-0.5-0.8c-0.1-0.3-0.2-0.7-0.2-1.1v-3.4c0-0.3,0-0.5-0.1-0.6c-0.1-0.2-0.2-0.3-0.4-0.4
	c-0.1-0.1-0.3-0.2-0.4-0.2c-0.1,0-0.3,0-0.3,0V7.2h0c0.1,0,0.2,0,0.3,0c0.1,0,0.3-0.1,0.4-0.2C0.9,6.9,1,6.8,1.1,6.6
	c0.1-0.2,0.1-0.3,0.1-0.6V2.5c0-0.4,0.1-0.8,0.2-1.1C1.6,1,1.8,0.8,2,0.6c0.2-0.2,0.4-0.3,0.7-0.4C3,0.1,3.2,0,3.5,0h1.7V2.9z
	 M21,10.9L10.9,0.6H8.5v2.4l10.1,10.2l-1.8,1.8l1.2,1.2l2.1-2.1l2.7,2.7c0.3,0.3,0.9,0.3,1.2,0l0.6-0.6c0.3-0.3,0.3-0.9,0-1.2
	l-2.7-2.7l2.1-2.1L22.8,9L21,10.9z M23.2,3l-4,4.1l-2.4-2.4l4-4.1h2.4V3z M12.5,9l2.4,2.5L13,13.3l1.8,1.8l-1.2,1.2l-2.1-2.1
	l-2.7,2.7c-0.3,0.3-0.9,0.3-1.2,0L7,16.3c-0.3-0.3-0.3-0.9,0-1.2l2.7-2.7l-2.1-2.1L8.8,9l1.8,1.8L12.5,9z"/>
<path class="st1" d="M44.8,16.2c4.4,0,6.7-2.3,6.7-5.9v-0.2H48v0.1c0,2.1-0.9,2.8-3.2,2.8c-2.5,0-3.5-0.9-3.5-4.4
	c0-3.5,1-4.4,3.5-4.4C47.1,4.2,48,5,48,7.1v0.1h3.5V7c0-3.7-2.4-5.9-6.7-5.9c-4.4,0-7.1,3-7.1,7.6C37.7,13.2,40.3,16.2,44.8,16.2z"
	/>
<path class="st1" d="M59.4,16.2c4.2,0,5.8-2.1,5.8-4.5c0-2.2-1.1-3.8-4.2-4.4l-2.6-0.5c-1.7-0.3-2.1-0.5-2.1-1.5
	c0-0.9,0.6-1.3,2.5-1.3c2.2,0,2.8,0.5,2.8,2v0.2h3.3V6.1c0-2.9-1.8-5.1-6-5.1C54.6,1,53,3.3,53,5.5c0,2.3,1.2,3.7,4,4.2l2.6,0.5
	c2.1,0.4,2.3,0.7,2.3,1.7s-0.5,1.4-2.3,1.4c-2.7,0-3.3-0.5-3.3-2.1v-0.2H53v0.3C53,14.5,55,16.2,59.4,16.2z"/>
<path class="st1" d="M73,16.2c4.2,0,5.8-2.1,5.8-4.5c0-2.2-1.1-3.8-4.2-4.4L72,6.9c-1.7-0.3-2.1-0.5-2.1-1.5c0-0.9,0.6-1.3,2.5-1.3
	c2.2,0,2.8,0.5,2.8,2v0.2h3.3V6.1c0-2.9-1.8-5.1-6-5.1c-4.2,0-5.9,2.2-5.9,4.5c0,2.3,1.2,3.7,4,4.2l2.6,0.5c2.1,0.4,2.3,0.7,2.3,1.7
	s-0.5,1.4-2.3,1.4c-2.7,0-3.3-0.5-3.3-2.1v-0.2h-3.2v0.3C66.7,14.5,68.7,16.2,73,16.2z"/>
<path class="st1" d="M87.7,16c3.4,0,5.1-1.6,5.1-4c0-2-1.2-3.5-3.5-3.7V8.1c2-0.2,2.9-1.4,2.9-3.1c0-2.6-1.7-3.7-4.8-3.7h-7.3V16
	H87.7z M83.4,4.2h3.7c1.2,0,1.8,0.2,1.8,1.4c0,1.2-0.5,1.4-1.8,1.4h-3.7V4.2z M83.4,9.8h4.2c1.2,0,1.9,0.2,1.9,1.6
	c0,1.4-0.7,1.6-1.9,1.6h-4.2V9.8z"/>
<path class="st1" d="M97.4,16.2c2,0,3.2-0.9,3.8-1.7h0.1V16h3.1V9.4c0-2.9-1.7-4.7-5-4.7c-3.1,0-5.2,1.7-5.2,4.4v0.2h3.1V9.1
	c0-1.1,0.5-1.5,1.9-1.5c1.3,0,2,0.2,2,1.5v0.4l-3.8,0.6c-2.3,0.4-3.5,1.4-3.5,3.1C93.9,15.2,95.5,16.2,97.4,16.2z M97.1,12.9
	c0-0.5,0.3-0.7,1-0.8l3.2-0.5c0,1.7-1.4,2.1-2.7,2.1C97.6,13.7,97.1,13.5,97.1,12.9z"/>
<path class="st1" d="M111.3,16c0.8,0,1.6-0.1,2.2-0.2v-2.8h-1.4c-1.4,0-1.8-0.1-1.8-1.1V7.7h3.1V4.9h-3.1V2.4h-2.6l-0.6,2.6h-1.8
	v2.7h1.8v4.7C107.1,15,108.5,16,111.3,16z"/>
<path class="st1" d="M119.6,16c0.8,0,1.6-0.1,2.2-0.2v-2.8h-1.4c-1.4,0-1.8-0.1-1.8-1.1V7.7h3.1V4.9h-3.1V2.4H116l-0.6,2.6h-1.8v2.7
	h1.8v4.7C115.3,15,116.7,16,119.6,16z"/>
<path class="st1" d="M126.6,16V1.3h-3.3V16H126.6z"/>
<path class="st1" d="M133.7,16.2c3.2,0,5.2-1.4,5.2-3.7v-0.2h-3.3v0.1c0,0.7-0.6,1-1.9,1c-1.8,0-2.4-0.6-2.5-2.2h7.6
	c0.1-0.4,0.2-1,0.2-1.6c0-2.9-2-4.9-5.3-4.9c-3.5,0-5.6,2.2-5.6,5.8C128.2,14,129.9,16.2,133.7,16.2z M133.6,7.4
	c1.5,0,2.3,0.6,2.2,1.8h-4.6C131.4,8,132,7.4,133.6,7.4z"/>
</svg>
