<svg xmlns="http://www.w3.org/2000/svg" width="64" height="62" stroke="#000" stroke-linecap="round" stroke-linejoin="round" fill="#fff" fill-rule="evenodd"><path d="M4.0615 14.47c-5.66 8.14-4.96 18.728-.632 27.4.1.208.21.412.316.616l.2.39c.04.076.084.15.126.224.074.14.15.268.226.404l.414.708.236.388.48.75.204.316.694 1 .136.184c.2062.2834.4169.5634.632.84l.24.304.584.72.224.268a40.393 40.393 0 0 0 .814.93c.028.03.04.04.048.052l.828.872.266.268.66.648.27.26c.2971.2801.5991.5548.906.824l.992.84.34.272.686.536.366.28.77.552.36.254c.246.17.496.332.748.494l.324.216c.3861.2451.7761.4838 1.17.716l.324.2.88.492c.16.086.324.168.486.25l.628.326.146.07.26.124.996.46.21.094a35.646 35.646 0 0 0 1.162.482l.28.112 1.096.406.14.048 1.22.4.296.088c.4.126.832.28 1.26.356 27.388 4.994 35.3401-16.46 35.3401-16.46-6.6801 8.704-18.5401 11-29.8001 8.444-.426-.096-.84-.228-1.254-.352l-.312-.094c-.4048-.1245-.8076-.2558-1.208-.394l-.166-.06-1.064-.394-.2999-.12a30.238 30.238 0 0 1-1.1501-.48l-.23-.1-.97-.452-.28-.134c-.252-.12-.5-.254-.75-.4l-.5-.26c-.304-.16-.6-.332-.8999-.504l-.3041-.17a43.533 43.533 0 0 1-1.1699-.716c-.1061-.068-.2101-.14-.3161-.21l-.832-.554c-.092-.06-.2-.128-.268-.188l-.788-.57-.35-.264-.71-.556-.316-.254-.884-.746a1.453 1.453 0 0 0-.1-.08l-.93-.846-.26-.252-.664-.66-.26-.26c-.28-.286-.552-.574-.8-.868-.014-.014-.028-.028-.04-.044-.2831-.3108-.5605-.6269-.832-.948l-.2-.26-.6-.74-.2-.274-.692-.92c-6.276-8.504-8.52-20.26-3.532-29.9m13.1601-1.25c-4.0961 5.894-3.8741 13.8-.6801 20.016a26.113 26.113 0 0 0 1.812 3.024c.6141.88 1.294 1.926 2.108 2.632.296.326.604.64.9201.954l.2399.24a26.925 26.925 0 0 0 .938.872c.014.01.0241.024.04.034.364.32.732.6 1.106.916l.248.194c.3753.2894.7581.5688 1.148.838l.0341.024c.172.12.3479.23.5239.346.0841.054.164.112.2481.164.2795.1794.5629.3528.8499.52l.12.07.752.4c.0881.05.2001.092.268.14l.526.272c.026.014.054.024.08.036a22.826 22.826 0 0 0 1.096.51l.24.1c.2979.1265.598.2478.9.364l.384.14a28.464 28.464 0 0 0 .826.286l.374.12c.3941.12.8.28 1.194.346 21.146 3.504 26.0281-12.8 26.0281-12.8-4.4001 6.34-12.9201 9.36-22.0161 7a26.117 26.117 0 0 1-1.198-.346c-.12-.036-.24-.076-.3599-.116l-.84-.288-.4001-.14c-.3019-.1165-.6019-.2378-.9-.364l-.244-.1a25.193 25.193 0 0 1-1.104-.512l-.554-.28-.3199-.164a26.4 26.4 0 0 1-.7001-.394l-.168-.094a24.755 24.755 0 0 1-.848-.52c-.0859-.054-.17-.114-.256-.17l-.55-.364c-.3873-.2685-.7675-.5472-1.14-.836l-.26-.2c-4-3.144-7.136-7.44-8.636-12.308-1.572-5.05-1.234-10.72 1.49-15.32m11.464-.366c-2.412 3.57-2.652 7.966-.976 11.89 1.7661 4.166 5.3861 7.432 9.612 9l.5241.2.2319.072.754.2c11.676 2.256 14.84-5.992 15.686-7.206-2.774 3.994-7.436 4.952-13.156 3.564-.452-.11-.948-.274-1.384-.428-.5596-.1983-1.1083-.426-1.644-.682-1.0166-.4889-1.982-1.0778-2.882-1.758-5.118-3.882-8.298-11.31-4.958-17.342" stroke="none" fill="#333" fill-rule="nonzero"/></svg>