<?xml version="1.0" encoding="utf-8"?>
<!-- Generator: Adobe Illustrator 24.3.0, SVG Export Plug-In . SVG Version: 6.00 Build 0)  -->
<svg version="1.1" id="Layer_1" xmlns="http://www.w3.org/2000/svg" xmlns:xlink="http://www.w3.org/1999/xlink" x="0px" y="0px"
	 viewBox="0 0 300 92" style="enable-background:new 0 0 300 92;" xml:space="preserve">
<style type="text/css">
	.st0{fill-rule:evenodd;clip-rule:evenodd;fill:#333333;}
	.st1{fill-rule:evenodd;clip-rule:evenodd;fill:#FFF7DE;}
</style>
<desc>Created with Sketch.</desc>
<g id="Group">
	<path id="path4147-path-copy" class="st0" d="M230.1,33.5c-5.4,0-11.1,1.6-18.8,4.6c-15.6,6-22.3,6-38.2,0
		c-15.3-5.8-21.3-5.9-35.3-0.4c-8.8,3.5-12.5,4.2-20.7,4.3c-8.5,0-11.4-0.5-19.8-4.2c-13.2-5.8-20.4-5.7-36,0.3
		c-15.6,6-22.3,6-38.2,0c-10.1-3.8-16.1-5.1-23-4v25.9c7.5-1,14.3,0.2,23.3,3.7c15.6,6.1,21.3,6.2,36,0.6
		c16.5-6.2,25.2-6.3,39.5-0.5c13.9,5.8,22.3,5.8,37.2,0c14.7-5.7,23.2-5.8,37.3-0.2c15.6,6.1,21.3,6.2,36,0.6
		c16.5-6.2,25.2-6.3,39.5-0.5c13.9,5.8,22.3,5.8,37.2,0c5.3-2,9.8-3.4,14-3.9V34c-3.6,0.5-7.5,1.8-12.3,3.7
		c-8.8,3.5-12.5,4.2-20.7,4.3c-8.5,0-11.4-0.5-19.8-4.2C240.6,34.9,235.5,33.5,230.1,33.5L230.1,33.5z"/>
	<path id="path4147-path" class="st1" d="M211.2,56.8c-15.6,6-22.3,6-38.2,0c-15.3-5.8-21.3-5.9-35.3-0.4
		c-8.8,3.5-12.5,4.2-20.7,4.3c-8.5,0-11.4-0.5-19.8-4.2c-13.2-5.8-20.4-5.7-36,0.3c-15.6,6-22.3,6-38.2,0c-10.1-3.8-16.1-5.1-23-4
		V73c7.5-1,14.3,0.2,23.3,3.7c15.6,6.1,21.3,6.2,36,0.6c16.5-6.2,25.2-6.3,39.5-0.5c13.9,5.8,22.3,5.8,37.2,0
		c14.7-5.7,23.2-5.8,37.3-0.2c15.6,6.1,21.3,6.2,36,0.6c16.5-6.2,25.2-6.3,39.5-0.5c13.9,5.8,22.3,5.8,37.2,0c5.3-2,9.8-3.4,14-3.9
		V52.7c-3.6,0.5-7.5,1.8-12.3,3.7c-8.8,3.5-12.5,4.2-20.7,4.3c-8.5,0-11.4-0.5-19.8-4.2c-6.6-2.9-11.7-4.3-17.2-4.3
		C224.7,52.2,219,53.8,211.2,56.8z"/>
</g>
</svg>
